<svg width="166" height="24" viewBox="0 0 166 24" fill="none" xmlns="http://www.w3.org/2000/svg">
  <g clip-path="url(#clip0_14_34)">
    <path d="M36 0H12C5.37258 0 0 5.37258 0 12C0 18.6274 5.37258 24 12 24H36C42.6274 24 48 18.6274 48 12C48 5.37258 42.6274 0 36 0Z" fill="#202124"/>
    <path d="M60.608 16.756C60 16.756 59.4187 16.6387 58.864 16.404C58.3093 16.1587 57.8187 15.8013 57.392 15.332C56.976 14.8627 56.6667 14.2813 56.464 13.588L58.128 12.916C58.2987 13.5347 58.5973 14.052 59.024 14.468C59.4507 14.884 59.984 15.092 60.624 15.092C60.9867 15.092 61.3227 15.028 61.632 14.9C61.952 14.772 62.208 14.5853 62.4 14.34C62.592 14.084 62.688 13.7747 62.688 13.412C62.688 13.0707 62.608 12.7827 62.448 12.548C62.288 12.3027 62.032 12.084 61.68 11.892C61.328 11.6893 60.88 11.492 60.336 11.3L59.616 11.044C59.3067 10.9267 58.992 10.7827 58.672 10.612C58.352 10.4413 58.0533 10.2333 57.776 9.988C57.5093 9.732 57.296 9.43333 57.136 9.092C56.976 8.75067 56.896 8.356 56.896 7.908C56.896 7.332 57.0453 6.80933 57.344 6.34C57.6533 5.87067 58.0747 5.49733 58.608 5.22C59.152 4.932 59.7813 4.788 60.496 4.788C61.232 4.788 61.8453 4.92133 62.336 5.188C62.8373 5.444 63.2267 5.75333 63.504 6.116C63.792 6.47867 63.9893 6.82533 64.096 7.156L62.512 7.828C62.448 7.604 62.3307 7.38533 62.16 7.172C62 6.95867 61.7813 6.78267 61.504 6.644C61.2373 6.49467 60.9067 6.42 60.512 6.42C60.1707 6.42 59.856 6.484 59.568 6.612C59.2907 6.74 59.0667 6.916 58.896 7.14C58.7253 7.35333 58.64 7.604 58.64 7.892C58.64 8.308 58.8107 8.64933 59.152 8.916C59.4933 9.172 59.9893 9.40667 60.64 9.62L61.376 9.876C61.7493 10.004 62.1173 10.1587 62.48 10.34C62.8427 10.5107 63.1733 10.7347 63.472 11.012C63.7707 11.2787 64.0053 11.6093 64.176 12.004C64.3573 12.388 64.448 12.8467 64.448 13.38C64.448 13.9667 64.3307 14.4787 64.096 14.916C63.872 15.3427 63.568 15.6947 63.184 15.972C62.8107 16.2387 62.3947 16.436 61.936 16.564C61.488 16.692 61.0453 16.756 60.608 16.756ZM69.8938 16.756C69.0938 16.756 68.3791 16.5693 67.7498 16.196C67.1204 15.8227 66.6244 15.3107 66.2617 14.66C65.9097 14.0093 65.7337 13.268 65.7337 12.436C65.7337 11.6573 65.9044 10.9373 66.2457 10.276C66.5871 9.61467 67.0618 9.08667 67.6697 8.692C68.2884 8.28667 68.9978 8.084 69.7977 8.084C70.6404 8.084 71.3551 8.26533 71.9418 8.628C72.5391 8.99067 72.9924 9.48667 73.3018 10.116C73.6111 10.7453 73.7657 11.4547 73.7657 12.244C73.7657 12.3613 73.7604 12.468 73.7498 12.564C73.7498 12.66 73.7444 12.7347 73.7338 12.788H67.4297C67.4724 13.236 67.5844 13.6253 67.7657 13.956C68.0004 14.372 68.3098 14.6867 68.6938 14.9C69.0778 15.1133 69.4938 15.22 69.9418 15.22C70.4858 15.22 70.9391 15.0973 71.3018 14.852C71.6751 14.596 71.9684 14.2813 72.1818 13.908L73.6058 14.596C73.2538 15.236 72.7738 15.7587 72.1658 16.164C71.5578 16.5587 70.8004 16.756 69.8938 16.756ZM67.5257 11.492H72.0538C72.0431 11.2893 71.9898 11.076 71.8938 10.852C71.7978 10.6173 71.6591 10.404 71.4778 10.212C71.2964 10.02 71.0671 9.86533 70.7898 9.748C70.5124 9.62 70.1871 9.556 69.8138 9.556C69.3444 9.556 68.9284 9.67867 68.5658 9.924C68.2031 10.1587 67.9204 10.4893 67.7178 10.916C67.6324 11.0973 67.5684 11.2893 67.5257 11.492ZM77.994 16.756C77.3967 16.756 76.874 16.6387 76.426 16.404C75.978 16.1693 75.6207 15.8493 75.354 15.444C75.098 15.028 74.97 14.5533 74.97 14.02C74.97 13.4333 75.1193 12.9373 75.418 12.532C75.7273 12.1267 76.1327 12.1267 76.634 11.604C77.146 11.3907 77.7113 11.284 78.33 11.284C78.682 11.284 79.002 11.3107 79.29 11.364C79.578 11.4067 79.834 11.46 80.058 11.524C80.282 11.588 80.458 11.6573 80.586 11.732V11.3C80.586 10.7667 80.394 10.34 80.01 10.02C79.626 9.7 79.13 9.54 78.522 9.54C78.106 9.54 77.7113 9.636 77.338 9.828C76.9647 10.0093 76.6607 10.26 76.426 10.58L75.258 9.668C75.4927 9.33733 75.7753 9.05467 76.106 8.82C76.4473 8.58533 76.826 8.404 77.242 8.276C77.658 8.148 78.1007 8.084 78.57 8.084C79.7433 8.084 80.65 8.37733 81.29 8.964C81.93 9.54 82.25 10.3507 82.25 11.396V16.5H80.586V15.492H80.49C80.3407 15.7053 80.1433 15.908 79.898 16.1C79.6633 16.292 79.386 16.4467 79.066 16.564C78.746 16.692 78.3887 16.756 77.994 16.756ZM78.298 15.348C78.746 15.348 79.1407 15.2413 79.482 15.028C79.8233 14.8147 80.09 14.5373 80.282 14.196C80.4847 13.844 80.586 13.4653 80.586 13.06C80.3407 12.9213 80.0527 12.8093 79.722 12.724C79.3913 12.628 79.034 12.58 78.65 12.58C77.9567 12.58 77.4607 12.7187 77.162 12.996C76.8633 13.2733 76.714 13.62 76.714 14.036C76.714 14.42 76.8527 14.7347 77.13 14.98C77.418 15.2253 77.8073 15.348 78.298 15.348ZM84.2007 16.5V8.34H85.8327V9.54H85.9287C86.0567 9.26267 86.2381 9.01733 86.4727 8.804C86.7181 8.59067 86.9954 8.42 87.3047 8.292C87.6247 8.164 87.9554 8.1 88.2968 8.1C88.5208 8.1 88.7074 8.116 88.8568 8.148C89.0168 8.16933 89.1608 8.20667 89.2888 8.26V10.052C89.0861 9.96667 88.8781 9.89733 88.6648 9.844C88.4621 9.79067 88.2488 9.764 88.0248 9.764C87.6194 9.764 87.2567 9.876 86.9367 10.1C86.6274 10.3133 86.3821 10.6013 86.2007 10.964C86.0194 11.3267 85.9287 11.732 85.9287 12.18V16.5H84.2007ZM94.0567 16.756C93.2354 16.756 92.5047 16.5693 91.8647 16.196C91.2354 15.8227 90.7394 15.3107 90.3767 14.66C90.0247 13.9987 89.8487 13.252 89.8487 12.42C89.8487 11.588 90.0247 10.8467 90.3767 10.196C90.7394 9.54533 91.2354 9.03333 91.8647 8.66C92.5047 8.276 93.2354 8.084 94.0567 8.084C94.9634 8.084 95.7261 8.28667 96.3447 8.692C96.9741 9.09733 97.4221 9.64667 97.6888 10.34L96.1207 10.98C95.9287 10.5427 95.6514 10.2173 95.2888 10.004C94.9367 9.78 94.5154 9.668 94.0247 9.668C93.5767 9.668 93.1661 9.78533 92.7927 10.02C92.4194 10.244 92.1207 10.5587 91.8967 10.964C91.6727 11.3693 91.5607 11.8547 91.5607 12.42C91.5607 12.9747 91.6727 13.46 91.8967 13.876C92.1207 14.292 92.4194 14.612 92.7927 14.836C93.1661 15.06 93.5767 15.172 94.0247 15.172C94.5474 15.172 94.9901 15.0547 95.3527 14.82C95.7154 14.5853 95.9981 14.2547 96.2007 13.828L97.7367 14.5C97.4381 15.1507 96.9741 15.6893 96.3447 16.116C95.7261 16.5427 94.9634 16.756 94.0567 16.756ZM99.2045 16.5V5.044H100.933V8.18L100.837 9.46H100.933C101.157 9.06533 101.498 8.74 101.957 8.484C102.426 8.21733 102.943 8.084 103.509 8.084C104.191 8.084 104.757 8.22267 105.205 8.5C105.663 8.77733 106.005 9.16133 106.229 9.652C106.453 10.132 106.565 10.6973 106.565 11.348V16.5H104.853V11.572C104.853 11.1347 104.767 10.7773 104.597 10.5C104.437 10.2227 104.223 10.0147 103.957 9.876C103.69 9.73733 103.391 9.668 103.061 9.668C102.645 9.668 102.277 9.78533 101.957 10.02C101.637 10.2547 101.386 10.564 101.205 10.948C101.023 11.3213 100.933 11.7213 100.933 12.148V16.5H99.2045ZM111.644 16.5L115.964 5.044H117.964L122.3 16.5H120.364L119.308 13.556H114.636L113.58 16.5H111.644ZM118.716 11.924L117.452 8.42L117.02 7.108H116.924L116.492 8.42L115.228 11.924H118.716ZM123.904 16.5V5.044H125.664V16.5H123.904ZM132.111 16.5V5.044H133.871V14.836H138.799V16.5H132.111ZM142.917 16.756C142.32 16.756 141.797 16.6387 141.349 16.404C140.901 16.1693 140.544 15.8493 140.277 15.444C140.021 15.028 139.893 14.5533 139.893 14.02C139.893 13.4333 140.042 12.9373 140.341 12.532C140.65 12.1267 141.056 11.8173 141.557 11.604C142.069 11.3907 142.634 11.284 143.253 11.284C143.605 11.284 143.925 11.3107 144.213 11.364C144.501 11.4067 144.757 11.46 144.981 11.524C145.205 11.588 145.381 11.6573 145.509 11.732V11.3C145.509 10.7667 145.317 10.34 144.933 10.02C144.549 9.7 144.053 9.54 143.445 9.54C143.029 9.54 142.634 9.636 142.261 9.828C141.888 10.0093 141.584 10.26 141.349 10.58L140.181 9.668C140.416 9.33733 140.698 9.05467 141.029 8.82C141.37 8.58533 141.749 8.404 142.165 8.276C142.581 8.148 143.024 8.084 143.493 8.084C144.666 8.084 145.573 8.37733 146.213 8.964C146.853 9.54 147.173 10.3507 147.173 11.396V16.5H145.509V15.492H145.413C145.264 15.7053 145.066 15.908 144.821 16.1C144.586 16.292 144.309 16.4467 143.989 16.564C143.669 16.692 143.312 16.756 142.917 16.756ZM143.221 15.348C143.669 15.348 144.064 15.2413 144.405 15.028C144.746 14.8147 145.013 14.5373 145.205 14.196C145.408 13.844 145.509 13.4653 145.509 13.06C145.264 12.9213 144.976 12.8093 144.645 12.724C144.314 12.628 143.957 12.58 143.573 12.58C142.88 12.58 142.384 12.7187 142.085 12.996C141.786 13.2733 141.637 13.62 141.637 14.036C141.637 14.42 141.776 14.7347 142.053 14.98C142.341 15.2253 142.73 15.348 143.221 15.348ZM153.476 16.756C153.06 16.756 152.681 16.692 152.34 16.564C151.999 16.436 151.7 16.2707 151.444 16.068C151.199 15.8547 151.001 15.636 150.852 15.412H150.756V16.5H149.124V5.044H150.852V8.308L150.756 9.444H150.852C151.001 9.20933 151.199 8.99067 151.444 8.788C151.7 8.57467 151.999 8.404 152.34 8.276C152.681 8.148 153.06 8.084 153.476 8.084C154.223 8.084 154.889 8.27067 155.476 8.644C156.063 9.01733 156.527 9.52933 156.868 10.18C157.22 10.8307 157.396 11.5773 157.396 12.42C157.396 13.2627 157.22 14.0093 156.868 14.66C156.527 15.3107 156.063 15.8227 155.476 16.196C154.889 16.5693 154.223 16.756 153.476 16.756ZM153.22 15.172C153.647 15.172 154.047 15.06 154.42 14.836C154.804 14.612 155.108 14.292 155.332 13.876C155.567 13.46 155.684 12.9747 155.684 12.42C155.684 11.8547 155.567 11.3693 155.332 10.964C155.108 10.548 154.804 10.228 154.42 10.004C154.047 9.78 153.647 9.668 153.22 9.668C152.793 9.668 152.393 9.78 152.02 10.004C151.647 10.228 151.343 10.548 151.108 10.964C150.873 11.3693 150.756 11.8547 150.756 12.42C150.756 12.9853 150.873 13.476 151.108 13.892C151.343 14.2973 151.647 14.612 152.02 14.836C152.393 15.06 152.793 15.172 153.22 15.172ZM162.008 16.756C161.357 16.756 160.792 16.66 160.312 16.468C159.832 16.2653 159.437 15.9987 159.128 15.668C158.819 15.3267 158.589 14.9587 158.44 14.564L159.992 13.892C160.184 14.3293 160.456 14.6653 160.808 14.9C161.171 15.124 161.587 15.236 162.056 15.236C162.483 15.236 162.851 15.1613 163.16 15.012C163.469 14.852 163.624 14.596 163.624 14.244C163.624 14.02 163.549 13.8387 163.4 13.7C163.261 13.5507 163.069 13.428 162.824 13.332C162.589 13.236 162.317 13.1507 162.008 13.076L161.032 12.852C160.648 12.756 160.28 12.6067 159.928 12.404C159.587 12.1907 159.309 11.924 159.096 11.604C158.883 11.284 158.776 10.9053 158.776 10.468C158.776 9.97733 158.915 9.556 159.192 9.204C159.48 8.84133 159.864 8.564 160.344 8.372C160.824 8.18 161.341 8.084 161.896 8.084C162.408 8.084 162.872 8.15333 163.288 8.292C163.715 8.42 164.083 8.61733 164.392 8.884C164.712 9.14 164.963 9.46 165.144 9.844L163.656 10.516C163.475 10.1533 163.229 9.90267 162.92 9.764C162.611 9.61467 162.275 9.54 161.912 9.54C161.507 9.54 161.165 9.62533 160.888 9.796C160.621 9.956 160.488 10.1693 160.488 10.436C160.488 10.7133 160.605 10.932 160.84 11.092C161.085 11.252 161.384 11.38 161.736 11.476L162.92 11.764C163.731 11.9667 164.339 12.276 164.744 12.692C165.149 13.0973 165.352 13.5933 165.352 14.18C165.352 14.7027 165.203 15.1613 164.904 15.556C164.605 15.94 164.2 16.2387 163.688 16.452C163.187 16.6547 162.627 16.756 162.008 16.756Z" fill="#1A73E8"/>
  </g>
  <defs>
    <clipPath id="clip0_14_34">
      <rect width="166" height="24" fill="white"/>
    </clipPath>
  </defs>
</svg>
